<?xml version="1.0" encoding="utf-8"?>
<!-- Generator: Adobe Illustrator 21.0.0, SVG Export Plug-In . SVG Version: 6.00 Build 0)  -->
<svg version="1.1" id="Layer_1" xmlns="http://www.w3.org/2000/svg" xmlns:xlink="http://www.w3.org/1999/xlink" x="0px" y="0px"
	 viewBox="0 0 1900 400" style="enable-background:new 0 0 1900 400;" xml:space="preserve">
<style type="text/css">
	.st0{fill:url(#SVGID_1_);}
	.st1{clip-path:url(#SVGID_3_);fill:#B2E1EF;}
	.st2{clip-path:url(#SVGID_5_);fill:#ECF8FF;}
	.st3{clip-path:url(#SVGID_7_);fill:#B2E1EF;}
	.st4{clip-path:url(#SVGID_9_);fill:#B2E1EF;}
	.st5{clip-path:url(#SVGID_11_);fill:#4E4D50;}
	.st6{clip-path:url(#SVGID_13_);fill:#737F84;}
	.st7{clip-path:url(#SVGID_15_);fill:#64C2DE;}
	.st8{clip-path:url(#SVGID_17_);fill:#EAF6FB;}
	.st9{clip-path:url(#SVGID_19_);fill:#64C2DE;}
	.st10{clip-path:url(#SVGID_21_);fill:#ECF8FF;}
	.st11{clip-path:url(#SVGID_23_);fill:#D5EEF7;}
	.st12{clip-path:url(#SVGID_25_);fill:#D5EEF7;}
	.st13{clip-path:url(#SVGID_27_);fill:#4E4D50;}
	.st14{clip-path:url(#SVGID_29_);fill:none;stroke:#4E4D50;stroke-width:1.787;stroke-miterlimit:10;}
	.st15{clip-path:url(#SVGID_31_);fill:#64C2DE;}
	.st16{clip-path:url(#SVGID_33_);fill:#64C2DE;}
	.st17{clip-path:url(#SVGID_35_);fill:#D5EEF7;}
	.st18{clip-path:url(#SVGID_37_);fill:#D5EEF7;}
	.st19{clip-path:url(#SVGID_39_);fill:#CDECF5;}
	.st20{clip-path:url(#SVGID_41_);fill:#D5EEF7;}
	.st21{clip-path:url(#SVGID_43_);fill:#737F84;}
	.st22{clip-path:url(#SVGID_45_);fill:#737F84;}
	.st23{clip-path:url(#SVGID_47_);fill:#FFFFFF;}
	.st24{clip-path:url(#SVGID_49_);fill:#161616;}
	.st25{clip-path:url(#SVGID_51_);fill:#FFFFFF;}
	.st26{clip-path:url(#SVGID_53_);fill:#161616;}
	.st27{clip-path:url(#SVGID_55_);fill:#4E4D50;}
	.st28{clip-path:url(#SVGID_57_);fill:none;stroke:#4E4D50;stroke-width:1.787;stroke-miterlimit:10;}
	.st29{clip-path:url(#SVGID_59_);fill:#4E4D50;}
	.st30{clip-path:url(#SVGID_61_);fill:#737F84;}
	.st31{clip-path:url(#SVGID_63_);fill:#D5EEF7;}
	.st32{clip-path:url(#SVGID_65_);fill:#B2E1EF;}
	.st33{clip-path:url(#SVGID_67_);fill:#D5EEF7;}
	.st34{clip-path:url(#SVGID_69_);fill:#B2E1EF;}
	.st35{clip-path:url(#SVGID_71_);fill:#B2E1EF;}
	.st36{fill:#FFFFFF;}
	.st37{font-family:'MyriadPro-Regular';}
	.st38{font-size:36px;}
	.st39{font-family:'PerpetuaTitlingMT-Light';}
</style>
<linearGradient id="SVGID_1_" gradientUnits="userSpaceOnUse" x1="-14.3107" y1="694.5514" x2="1891.7888" y2="694.5514" gradientTransform="matrix(0.9968 0 0 0.9968 14.2649 -492.3288)">
	<stop  offset="0" style="stop-color:#DA4553"/>
	<stop  offset="1" style="stop-color:#E47C88"/>
</linearGradient>
<rect class="st0" width="1900" height="400"/>
<g>
	<g>
		<g>
			<g>
				<g>
					<defs>
						<rect id="SVGID_2_" x="794.5" y="124.5" width="129" height="147.8"/>
					</defs>
					<clipPath id="SVGID_3_">
						<use xlink:href="#SVGID_2_"  style="overflow:visible;"/>
					</clipPath>
					<path class="st1" d="M901.7,206.1c0.5-0.4,2-2.2,2.3-2.8s-2-3.7-2-3.7s0.5-5.8,0-5.7s-1,0.3-1.5,0.5c-1,0.4-1.9,0.9-2.9,1.1
						c-1.9,0.5-0.6-0.2-0.1-3.5c0,0.3,0.9,1,0.9,1s0.5-2.8-1-5.7c-0.2-0.3-0.4-0.7-0.6-1l1.4,0.2l-0.4-0.8c0,0-1-1.8-2.9-2.5
						c-1.9-0.8-5-0.6-5-0.6s2.2,1.9,1.2,6.8c0,0,0,0-0.1,0c-0.3-0.2-0.6-1-0.6-1s-2.5,6.6-7.1,8.6c0.3-0.2,0.5-1.3,0.5-1.3
						c-2.1,1-4.1-0.1-7.3-1.3c-3.2-1.1,1.1,8.3,1.4,8.1c0.1,0,0.6-0.2,1.4-0.5l0.1,10.6l0,0l0.8,2.6c0,0,5-2.7,7.6-1.1
						c0-0.4-0.8-1.4-0.8-1.4s4.6,3.1,9.3,2.6c-0.2-0.1-0.3-0.3-0.5-0.5c0.5,0.1,0.9,0.2,1.4,0.3c1.2,0.1,3.4,0.2,4.4-0.2
						s-2.8-1.3-2.1-2.2c0.5-0.6,0.9-1.2,1-1.8c0.1-0.5,1.6,0.3,2-0.1c0.6-0.5,1-1.2,1.2-1.9c0.1-0.4-2.8-0.8-2.9-1.2
						c-0.1-0.4-0.2-0.7-0.5-1C900.1,206.3,901.3,206.4,901.7,206.1"/>
				</g>
			</g>
		</g>
		<g>
			<g>
				<g>
					<defs>
						<rect id="SVGID_4_" x="794.5" y="124.5" width="129" height="147.8"/>
					</defs>
					<clipPath id="SVGID_5_">
						<use xlink:href="#SVGID_4_"  style="overflow:visible;"/>
					</clipPath>
					<path class="st2" d="M906.2,196.4c0.6,0.1,1.7,0.6,1.7,0.6s-0.3-0.6-1.2-1.5c-0.9-1-2.4-1.2-4.7-0.9c-1.7,0.2-3.1,1.1-4.4,1.7
						c0.8-0.3,1.9-0.6,2.8-0.3c0.9,0.3,1.2,0.7,1.2,1.1c-0.3,1-1.9,1.6-2.7,2c0.3,0,0.6,0,0.8,0.1c-2.1,1.4-5.1,3-5.3,4.4
						c0.2,0.5,2.9,0.6,4.5,0.5c0.5,0-0.4,0.6-0.5,0.7c0.9-0.1,1.7-0.1,2.2-0.2c0.5-0.1,1-0.2,1.4-0.3c-0.4,0.1-0.8,0.3-1.2,0.5l0,0
						c0,0-4.4,1.9-5.4,3.3c0.3-0.1,0.5-0.1,0.8-0.2c-0.7,0.6-1.3,1.2-2,1.6c0.2,2.4,8.2,1.1,8.2,1.1c-3.6,1-8.2,1.3-8.2,1.3
						c0,0.5,0.5,1.3,1.3,2c-0.2,0-0.4,0.1-0.6,0.1c1.3,1.4,3.7,1.7,4.8,1.7l0,0c0.3,0,0.5,0,0.5,0l0,0c0.5,0,0.9-0.1,1.4-0.3
						c1.2-0.5,1.8-1.3,2.1-2.1c0.1,0.2,0.2,0.4,0.3,0.7c0.4-1.4-0.1-3-0.2-3.5c0.6-0.4,1.1-0.9,1.4-1.4c0.1,0.3,0.1,0.6,0.2,0.9
						c0.7-1.2,0.7-2.7,0.7-3.4c0.3,0.5,0.7,1.2,0.7,1.2c0.2-2.4-1.1-4.4-1.1-4.4s1.3-1.7,1.6-3.5c0.2,0.2,0.3,0.4,0.5,0.6
						c0.1-1-0.4-2.1-0.7-2.8C906.8,197.2,906.4,196.7,906.2,196.4"/>
				</g>
			</g>
		</g>
		<g>
			<g>
				<g>
					<defs>
						<rect id="SVGID_6_" x="794.5" y="124.5" width="129" height="147.8"/>
					</defs>
					<clipPath id="SVGID_7_">
						<use xlink:href="#SVGID_6_"  style="overflow:visible;"/>
					</clipPath>
					<path class="st3" d="M900.6,204.1c0,0,3.7-0.5,4.6-1.2c-0.5,0.8-1.5,1.5-1.5,1.5v-0.7c-2.7,1.3-2.7,0.9-3.8,1.5
						C900.7,204.3,900.6,204.1,900.6,204.1"/>
				</g>
			</g>
		</g>
		<g>
			<g>
				<g>
					<defs>
						<rect id="SVGID_8_" x="794.5" y="124.5" width="129" height="147.8"/>
					</defs>
					<clipPath id="SVGID_9_">
						<use xlink:href="#SVGID_8_"  style="overflow:visible;"/>
					</clipPath>
					<path class="st4" d="M898.9,210.5c0,0,4-0.1,5-0.7c-0.6,0.8-2.6,1.2-3.7,1.6C901.1,210.7,898.9,210.5,898.9,210.5"/>
				</g>
			</g>
		</g>
		<g>
			<g>
				<g>
					<defs>
						<rect id="SVGID_10_" x="794.5" y="124.5" width="129" height="147.8"/>
					</defs>
					<clipPath id="SVGID_11_">
						<use xlink:href="#SVGID_10_"  style="overflow:visible;"/>
					</clipPath>
					<path class="st5" d="M894.1,158.8c0,0,2.4,0.6,4.9,0c2.4-0.6,4.7-2.3,4.7-2.3s-1.2,4.1-4.3,7.2c-3.1,3.1-7.1,2.8-9.5,2.4
						C889.9,166.1,892.8,160.5,894.1,158.8"/>
				</g>
			</g>
		</g>
		<g>
			<g>
				<g>
					<defs>
						<rect id="SVGID_12_" x="794.5" y="124.5" width="129" height="147.8"/>
					</defs>
					<clipPath id="SVGID_13_">
						<use xlink:href="#SVGID_12_"  style="overflow:visible;"/>
					</clipPath>
					<path class="st6" d="M894.1,158.8c0,0,2.4,0.6,4.9,0c2.4-0.6,4.7-2.3,4.7-2.3s-2.5,4.9-11.1,5.9L894.1,158.8z"/>
				</g>
			</g>
		</g>
		<g>
			<g>
				<g>
					<defs>
						<rect id="SVGID_14_" x="794.5" y="124.5" width="129" height="147.8"/>
					</defs>
					<clipPath id="SVGID_15_">
						<use xlink:href="#SVGID_14_"  style="overflow:visible;"/>
					</clipPath>
					<path class="st7" d="M877.1,194.5c0,0,4.5,4.7,4.8,15.5c0.3,10.3-4.7,16.1-6,17.5l-2.7-2.3l4-9L877.1,194.5z"/>
				</g>
			</g>
		</g>
		<g>
			<g>
				<g>
					<defs>
						<rect id="SVGID_16_" x="794.5" y="124.5" width="129" height="147.8"/>
					</defs>
					<clipPath id="SVGID_17_">
						<use xlink:href="#SVGID_16_"  style="overflow:visible;"/>
					</clipPath>
					<path class="st8" d="M900.2,220.6c-1.7,2-5,3.1-5,3.1c0.8-1.3,0.9-3.4,0.9-3.4s-1.9,1.2-6.9,3.5c-5.1,2.3-8.7,6-8.7,6
						c-2.7-2.9-6.4-5-6.4-5s6.9-6.8,7.4-15.9c0.5-9-4.4-14.6-4.4-14.6c10.6-26.9,20.1-39.2,20.1-39.2c0.9-1,2.4-2.7,2.4-2.7
						c-0.8-0.2-1.6-0.4-2.4-0.7c-0.7-0.2-1.4-0.5-2-0.7c0.1-0.2,0.2-0.5,0.2-0.7c0.1-0.3,0.3-0.7,0.4-1c0.3-0.7,0.6-1.4,1-2l0.3-0.5
						l-0.6-0.1c-2.4-0.4-4.8-0.4-7.1-0.1v-1.5c-2.5,0-4.5,0.7-6.1,1.4c0.1-0.1,0.1-0.2,0.2-0.4c0.4-0.9,0.9-1.7,1.4-2.5l0.8-1.2
						l-1.4,0.1c-2.9,0.2-5.8,0.8-8.6,1.6c-1.4,0.4-2.8,0.9-4.1,1.4c-0.9,0.4-1.9,0.8-2.8,1.2c0.1-0.4,0.2-0.9,0.3-1.3
						c0.2-0.9,0.5-1.8,0.8-2.7l0.4-1.2l-1.3,0.2c-4.1,0.6-8,2-11.5,4.1c-0.3-1.2-0.5-2.5-0.2-3.6c-2.3,0.9-6,2.2-6.4,7.5
						c0,0.6-0.1,1.2-0.1,1.7c-0.2,0.2-0.4,0.4-0.5,0.6c-1.6-2.1-2.5-5.1-2.5-5.1l-1.6,7.5v0.2l-2.1-2.7l-0.6-0.8l-0.3,0.9
						c-0.4,1.3-0.8,2.6-1,3.9c-0.2,1-0.3,1.9-0.4,2.9l-1.5-1.7l-0.4-0.4l-0.2,0.5c-0.7,2.1-1.3,4.1-1.7,6.3
						c-0.2,1.1-0.5,2.1-0.6,3.2c-0.1,1.1-0.2,2.2-0.1,3.2c-0.1-1.1,0.1-2.2,0.3-3.2c0.2-1.1,0.5-2.1,0.7-3.1
						c0.5-1.9,1.1-3.7,1.8-5.6l1.7,2.1l0.7,0.9v-1.1c0-1.3,0.3-2.5,0.6-3.8c0.2-0.9,0.5-1.8,0.8-2.7l2,2.6l-1,3.9c0,0,0.7-0.4,1.7-1
						L828,197.4c-2.2,15.2,1.2,20.4,1.2,20.4c0.8-2.5,2.2-3.8,2.2-3.8s1,6.3,4.9,12.9c3.8,6.6,9.9,11.1,9.9,11.1
						c-0.8-2.1-0.6-4.2-0.6-4.2c2.8,4.4,13.4,9.1,16.3,10.7c2.9,1.5,5.1,3.2,5.1,3.2c0.1-2.4-1.4-4.7-1.4-4.7s3.9,3.1,6.1,4.7
						c2.2,1.6,2.9,2.5,5.8,2.5h9.7c1-1.3,3.1-5.4,4.4-8c1.3-2.5,2.8-5.2,2.8-5.2c-1.9,0.8-3.9,2.1-3.9,2.1c0.7-2.1,3.5-6.3,6.1-10
						C899.3,225.5,900.2,220.6,900.2,220.6"/>
				</g>
			</g>
		</g>
		<g>
			<g>
				<g>
					<defs>
						<rect id="SVGID_18_" x="794.5" y="124.5" width="129" height="147.8"/>
					</defs>
					<clipPath id="SVGID_19_">
						<use xlink:href="#SVGID_18_"  style="overflow:visible;"/>
					</clipPath>
					<path class="st9" d="M849.2,241.9c0,0,2.6,0.2,4.9-1.3l-19.5-16.9c0,0-2.5,4.1-4.3,6.3c-0.8,0.9-1.8,1.6-2.9,1.9
						c-1.1,0.3-2.3,0.2-3.4,0.1l-0.9-0.1l0.6,0.8c0.5,0.6,1,1.4,1.3,2.2c0.1,0.4,0.2,0.8,0.3,1.2l0.1,1.4l0.1,2.8l0.1,1.4
						c0,0.5,0.1,0.9,0.2,1.5l1,0.2l0.3-0.1c0.1-0.2,0.2-0.4,0.4-0.7c0.1-0.2,0.3-0.4,0.4-0.6c0.1-0.1,0.1-0.2,0.2-0.3
						c0.1,0.4,0.1,0.7,0.2,1.1c0.1,0.4,0.1,0.7,0.2,1.1v0.3l0.1,0.3c0,0.2,0.1,0.4,0.1,0.6c0.2,0.8,0.5,1.6,0.8,2.3
						c0.4,0.7,0.7,1.5,1.4,2.1l0.5,0.5l0.6-0.4c0.1,0,0.2-0.1,0.2-0.2c0.1-0.1,0.2-0.1,0.3-0.2l0,0c0.2,0.3,0.4,0.6,0.7,0.9
						c0.4,0.5,1.1,1,1.8,1.2c0.3,0.1,0.7,0.1,1,0.2h0.9h1.7c2.3,0,4.5-0.1,6.8-0.1s4.5-0.1,6.8-0.2c2.3-0.1,4.5-0.2,6.8-0.4
						C858.8,250.6,857.6,245.1,849.2,241.9"/>
				</g>
			</g>
		</g>
		<g>
			<g>
				<g>
					<defs>
						<rect id="SVGID_20_" x="794.5" y="124.5" width="129" height="147.8"/>
					</defs>
					<clipPath id="SVGID_21_">
						<use xlink:href="#SVGID_20_"  style="overflow:visible;"/>
					</clipPath>
					<path class="st10" d="M863.9,147.5c0,0,6.2-3.7,9.7-4.5c-0.4,3.2,0,6.5,0,6.5L863.9,147.5z"/>
				</g>
			</g>
		</g>
		<g>
			<g>
				<g>
					<defs>
						<rect id="SVGID_22_" x="794.5" y="124.5" width="129" height="147.8"/>
					</defs>
					<clipPath id="SVGID_23_">
						<use xlink:href="#SVGID_22_"  style="overflow:visible;"/>
					</clipPath>
					<path class="st11" d="M900.1,220.6c-1.3,4-6.4,8-6.4,8c0.2-1,0.2-2.5,0.2-2.5c-0.6,0.5-1.1,1-1.6,1.4c-2.1,1.9-4.7,4.9-4.7,4.9
						c-0.2-0.9-0.2-3-0.2-3c-2.3,1.5-6.1,5.7-6.1,5.7s-3.4-2.7-5.1-4.5c-3.2-2.7-8.6-5-14.1-7.2s-10.4-5.1-10.4-5.1
						c-0.1,1.4,0,3.5,0,3.5c-5.2-5.4-6.7-14.2-6.7-14.2c-0.8,1.2-1.6,3.2-1.6,3.2c-2-4.3-2.5-13.4-2.5-13.4s0-8.1,0.9-12.8
						c1.5-6,8.1-13.6,9.6-15.5c3.8-3.5,8.3-4.7,8.3-4.7l-3.8-0.5c4.6-4.9,9.4-9.1,10.6-10.1c0.2-0.2-5.2-0.5-5.2-0.5
						c1-3.1,1.7-4.4,3.4-6.8c1.9-2.6,5.5-5,5.5-5h-0.1l0,0c-0.4,0.1-0.8,0.1-1.2,0.2c-0.1,0-0.1,0-0.2,0c-3.6,0.5-8.1,2.2-11.2,4.1
						c-0.3-1.2-0.5-2.5-0.2-3.6c-2.3,0.9-6,2.2-6.4,7.5c0,0.6-0.1,1.2-0.1,1.7c-0.2,0.2-0.4,0.4-0.5,0.6c-1.6-2.1-2.5-5.1-2.5-5.1
						l-1.6,7.5v0.2l-2.1-2.7l-0.6-0.8l-0.3,0.9c-0.4,1.3-0.8,2.6-1,3.9c-0.2,1-0.4,1.9-0.4,2.9l-1.5-1.7l-0.4-0.4l-0.2,0.5
						c-0.7,2.1-1.3,4.1-1.7,6.3c-0.2,1.1-0.5,2.1-0.6,3.2c0,0.2-0.1,0.4-0.1,0.7c-0.1,0.3-0.1,0.6-0.2,0.9c-0.9-0.5-1.6-1.4-2-2.4
						s-0.6-2-0.6-3v-2.2l-0.5,2.1c-0.9,3.5-1.4,7.2-1.6,10.8c-0.1,1.8-0.1,3.7-0.1,5.5c0,0.8,0.1,1.6,0.1,2.3
						c-0.5-0.9-0.9-1.7-1.4-2.6l-1.1-2.2l-0.4,2.4c-0.2,1.3-0.3,2.6-0.3,4c0,1.3,0.1,2.6,0.2,3.9c0.1,1.1,0.2,2.2,0.3,3.3
						c-0.3-0.8-4.1,13.1-4,16.6c0.1,2,0.3,3.9,0.7,5.9c0.2,1,0.4,1.9,0.7,2.9s0.6,1.9,1.1,2.8l0.8,1.6l0.6-1.8
						c0.2-0.7,0.5-1.3,0.9-1.9c0,0,0-0.1,0.1-0.1c0.4,1.8,0.9,3.5,1.6,5.2c0.9,2.3,1.9,4.5,3.1,6.7c1.3,2.1,2.8,4.1,4.5,5.9
						c1.7,1.8,7.4,5.4,7.4,5.4s-0.3-2-0.3-2.1c0.8,0.7,1.7,1.3,2.6,1.9c1.8,1.2,3.7,2.3,5.7,3.3c1.9,1,3.9,1.9,5.8,2.8
						c1.9,0.9,3.7,2,5.4,3.2l1.2,0.9V248c0-1-0.2-1.9-0.5-2.7v-0.1c1.2,0.9,2.5,1.8,3.8,2.7c1,0.6,1.9,1.4,3,2s2.3,0.7,3.5,0.7h9.7
						c1-1.3,3.1-5.4,4.4-8c1.3-2.5,2.8-5.2,2.8-5.2c-1.8,0.8-3.9,2.1-3.9,2.1c0.7-2.1,3.5-6.3,6.1-10
						C899.2,225.5,900.1,220.6,900.1,220.6"/>
				</g>
			</g>
		</g>
		<g>
			<g>
				<g>
					<defs>
						<rect id="SVGID_24_" x="794.5" y="124.5" width="129" height="147.8"/>
					</defs>
					<clipPath id="SVGID_25_">
						<use xlink:href="#SVGID_24_"  style="overflow:visible;"/>
					</clipPath>
					<path class="st12" d="M856.7,200.2c0,0,0.2,2.5,1.3,4.6c0,0,0.9-1.2,1.5-1.8c0,0,0.7,2.6,1.7,3.7c0,0,1.2-1.4,1.9-2.9
						c0,0,0.8,1.9,1.6,2.6c0,0,1-1.5,1.5-3.3c0,0,1.8-0.8,2.6-1.5C869,201.7,863.2,202.4,856.7,200.2"/>
				</g>
			</g>
		</g>
		<g>
			<g>
				<g>
					<defs>
						<rect id="SVGID_26_" x="794.5" y="124.5" width="129" height="147.8"/>
					</defs>
					<clipPath id="SVGID_27_">
						<use xlink:href="#SVGID_26_"  style="overflow:visible;"/>
					</clipPath>
					<path class="st13" d="M852.7,190.9c0,0,2.7,0.2,6.6,0.1c3.9-0.1,11.7-0.5,13.6,1c0,0-2.2,1.7-2.9,2.2c-0.5,0.2-0.2,1.2,0.1,1.7
						c0.2,0.5,1.1,1.8,1.2,2.4c0,0-3.9,0.2-6.9,0C861.4,198,853.2,196,852.7,190.9"/>
				</g>
			</g>
		</g>
		<g>
			<g>
				<g>
					<defs>
						<rect id="SVGID_28_" x="794.5" y="124.5" width="129" height="147.8"/>
					</defs>
					<clipPath id="SVGID_29_">
						<use xlink:href="#SVGID_28_"  style="overflow:visible;"/>
					</clipPath>
					<path class="st14" d="M852.7,190.9c0,0,2.7,0.2,6.6,0.1c3.9-0.1,11.7-0.5,13.6,1c0,0-2.2,1.7-2.9,2.2c-0.5,0.2-0.2,1.2,0.1,1.7
						c0.2,0.5,1.1,1.8,1.2,2.4c0,0-3.9,0.2-6.9,0C861.4,198,853.2,196,852.7,190.9z"/>
				</g>
			</g>
		</g>
		<g>
			<g>
				<g>
					<defs>
						<rect id="SVGID_30_" x="794.5" y="124.5" width="129" height="147.8"/>
					</defs>
					<clipPath id="SVGID_31_">
						<use xlink:href="#SVGID_30_"  style="overflow:visible;"/>
					</clipPath>
					<path class="st15" d="M867.2,221.2c0,0,2.5,1,7,3.7c0,0,1.1-0.9,2.4-2.8c1.5-1.7,2.6-4.5,2.6-4.5s-2.1,3-5.9,3.9
						C869.6,222.4,867.2,221.2,867.2,221.2"/>
				</g>
			</g>
		</g>
		<g>
			<g>
				<g>
					<defs>
						<rect id="SVGID_32_" x="794.5" y="124.5" width="129" height="147.8"/>
					</defs>
					<clipPath id="SVGID_33_">
						<use xlink:href="#SVGID_32_"  style="overflow:visible;"/>
					</clipPath>
					<path class="st16" d="M887,250.7c1.1-1.3,3.2-5.6,4.5-8.3c1.3-2.6,2.9-5.4,2.9-5.4c-1.9,0.8-4.1,2.2-4.1,2.2
						c0.7-2.2,3.6-6.5,6.3-10.3c2.8-3.8,3.7-8.9,3.7-8.9c-1.3,4.2-6.7,8.3-6.7,8.3c0.2-1,0.2-2.6,0.2-2.6c-0.6,0.5-1.1,1-1.6,1.5
						c-2.2,1.9-4.9,5.1-4.9,5.1c-0.2-1-0.2-3.1-0.2-3.1s-4.7,4.1-5.8,5.9c-1.1,1.8-4.1,8.3-4.1,8.3l-0.1-4.7c0,0-1.6,8.8-2.8,9.3
						s-1.8,0.8-3.4-0.3c0,0,2.4,2.2,4.1,2.7c1,0.3,3.5,0.3,6.4,0.3C884.3,250.7,887,250.7,887,250.7"/>
				</g>
			</g>
		</g>
		<g>
			<g>
				<g>
					<defs>
						<rect id="SVGID_34_" x="794.5" y="124.5" width="129" height="147.8"/>
					</defs>
					<clipPath id="SVGID_35_">
						<use xlink:href="#SVGID_34_"  style="overflow:visible;"/>
					</clipPath>
					<path class="st17" d="M856.1,177.6c0,0,0.3-1.6,2.3-2c2.1-0.4,3.2,1.1,3.2,1.1s-1.5-0.5-3-0.2
						C857.2,176.9,856.1,177.6,856.1,177.6"/>
				</g>
			</g>
		</g>
		<g>
			<g>
				<g>
					<defs>
						<rect id="SVGID_36_" x="794.5" y="124.5" width="129" height="147.8"/>
					</defs>
					<clipPath id="SVGID_37_">
						<use xlink:href="#SVGID_36_"  style="overflow:visible;"/>
					</clipPath>
					<path class="st18" d="M855.7,176c0,0,0.2-1.9,2-2.6c2.7-1.1,4,1.3,4,1.3s-1.8-0.8-3.3-0.4C856.8,174.6,855.7,176,855.7,176"/>
				</g>
			</g>
		</g>
		<g>
			<g>
				<g>
					<defs>
						<rect id="SVGID_38_" x="794.5" y="124.5" width="129" height="147.8"/>
					</defs>
					<clipPath id="SVGID_39_">
						<use xlink:href="#SVGID_38_"  style="overflow:visible;"/>
					</clipPath>
					<path class="st19" d="M880.2,181.4c0,0-0.9-2-3.7-2.3c0,0,1-1,2.5-0.3C880.2,179.5,880.2,181.4,880.2,181.4"/>
				</g>
			</g>
		</g>
		<g>
			<g>
				<g>
					<defs>
						<rect id="SVGID_40_" x="794.5" y="124.5" width="129" height="147.8"/>
					</defs>
					<clipPath id="SVGID_41_">
						<use xlink:href="#SVGID_40_"  style="overflow:visible;"/>
					</clipPath>
					<path class="st20" d="M881.4,179.1c0,0-0.3-0.8-1.5-1.5c-0.7-0.4-1.8-0.7-2.6-0.6c0,0,1.3-1.3,3-0.2
						C881.6,177.6,881.4,179.1,881.4,179.1"/>
				</g>
			</g>
		</g>
		<g>
			<g>
				<g>
					<defs>
						<rect id="SVGID_42_" x="794.5" y="124.5" width="129" height="147.8"/>
					</defs>
					<clipPath id="SVGID_43_">
						<use xlink:href="#SVGID_42_"  style="overflow:visible;"/>
					</clipPath>
					<path class="st21" d="M873.3,182.8c-1,2.3-0.7,5.6,1.1,5.6c2.2,0,3-3,2.8-5.4L873.3,182.8z"/>
				</g>
			</g>
		</g>
		<g>
			<g>
				<g>
					<defs>
						<rect id="SVGID_44_" x="794.5" y="124.5" width="129" height="147.8"/>
					</defs>
					<clipPath id="SVGID_45_">
						<use xlink:href="#SVGID_44_"  style="overflow:visible;"/>
					</clipPath>
					<path class="st22" d="M856.7,180.5c-1.2,2.8-0.9,5.5,0.9,5.8c2.1,0.3,3.4-2.7,3.4-5L856.7,180.5z"/>
				</g>
			</g>
		</g>
		<g>
			<g>
				<g>
					<defs>
						<rect id="SVGID_46_" x="794.5" y="124.5" width="129" height="147.8"/>
					</defs>
					<clipPath id="SVGID_47_">
						<use xlink:href="#SVGID_46_"  style="overflow:visible;"/>
					</clipPath>
					<path class="st23" d="M856.3,182.3c0-1.8,1-3.1,2.4-3.4c1.4-0.3,2.4,1.5,2.3,3c-0.1,1.5-1.3,3.4-2.9,3.2
						C856.5,185,856.3,182.9,856.3,182.3"/>
				</g>
			</g>
		</g>
		<g>
			<g>
				<g>
					<defs>
						<rect id="SVGID_48_" x="794.5" y="124.5" width="129" height="147.8"/>
					</defs>
					<clipPath id="SVGID_49_">
						<use xlink:href="#SVGID_48_"  style="overflow:visible;"/>
					</clipPath>
					<path class="st24" d="M857.1,182.5c0-0.6,0.3-1.1,0.8-1.2c0.5-0.1,0.8,0.5,0.8,1s-0.4,1.2-1,1.1
						C857.1,183.5,857.1,182.7,857.1,182.5"/>
				</g>
			</g>
		</g>
		<g>
			<g>
				<g>
					<defs>
						<rect id="SVGID_50_" x="794.5" y="124.5" width="129" height="147.8"/>
					</defs>
					<clipPath id="SVGID_51_">
						<use xlink:href="#SVGID_50_"  style="overflow:visible;"/>
					</clipPath>
					<path class="st25" d="M873,184.9c-0.1-1.8,0.8-3.4,2.2-3.8c1.4-0.4,2.2,1.3,2.1,2.8c-0.1,1.5-1.3,3.5-2.8,3.3
						C873.3,187,873,185.5,873,184.9"/>
				</g>
			</g>
		</g>
		<g>
			<g>
				<g>
					<defs>
						<rect id="SVGID_52_" x="794.5" y="124.5" width="129" height="147.8"/>
					</defs>
					<clipPath id="SVGID_53_">
						<use xlink:href="#SVGID_52_"  style="overflow:visible;"/>
					</clipPath>
					<path class="st26" d="M873.6,184.7c0-0.6,0.3-1.2,0.8-1.4c0.5-0.1,0.8,0.5,0.8,1s-0.5,1.3-1,1.2
						C873.7,185.4,873.6,184.9,873.6,184.7"/>
				</g>
			</g>
		</g>
		<g>
			<g>
				<g>
					<defs>
						<rect id="SVGID_54_" x="794.5" y="124.5" width="129" height="147.8"/>
					</defs>
					<clipPath id="SVGID_55_">
						<use xlink:href="#SVGID_54_"  style="overflow:visible;"/>
					</clipPath>
					<path class="st27" d="M882.6,183.2c-0.4-0.1-2.5-0.8-5.7-1.2c-3.2-0.5-5.7-0.2-7.1-0.1c-1.4,0.1-1.4,0.1-2.9-0.3
						c-1.5-0.4-5.3-1.5-10.1-2.3s-8.1-0.5-8.1-0.5s-4.6-4.9-5.5-5.7c-0.2,2-0.7,3.1-0.7,3.1s5.6,4.9,5.8,5.1
						c0.3,0.2,0.4,0.2,0.9,0.6c0.5,0.4,0.5,1,0.6,2.2c0,1.2-0.1,2,0.9,2.5c0.9,0.4,3.2,1,5.9,1.4c2.6,0.4,5.9,0.2,6.8-0.2
						c0.9-0.4,1.8-1.8,2.2-2.5c0.5-0.7,0.9-1.5,1.2-1.8s1-0.2,1.7-0.1c0.7,0.1,0.5,0.4,0.5,0.8c0,0.3-0.3,3.2,0.6,4
						c0.9,0.8,2.2,1.1,5.7,1.4c3.5,0.2,4.2-0.4,4.6-1c0.5-0.7,1-1.9,1.2-2.3c0.2-0.4,0.3-0.6,0.7-0.7c0.4-0.1,0.6-0.3,0.7-0.6
						c0.1-0.3,0.2-0.7,0.4-1C882.9,183.6,883,183.3,882.6,183.2 M865.5,183.3c-0.2,0.5-1.1,2.6-2,3.3c-0.8,0.7-1.1,0.9-2.9,0.9
						c-1.8,0-5.4-0.3-7.4-0.9c-1.9-0.6-2.8-0.8-2.9-1.5c-0.1-0.8,0.2-3.9,0.4-4.5c0.1-0.6,0.8-0.9,1.2-0.9c0.8-0.1,4.6,0.1,6.3,0.4
						c1.7,0.3,5.9,1.3,6.8,1.8C865.9,182.4,865.7,182.9,865.5,183.3 M881.2,184c-0.1,0.6-1.6,4.1-2,4.4c-0.4,0.4-1.7,0.8-3.9,0.7
						s-4.3-0.5-4.9-0.8c-0.6-0.3-0.8-0.5-0.9-1.8c-0.1-1.3,0.1-2.2,0.3-2.9s1.2-1.1,3.5-1.1c0.8,0,3.7,0,5.5,0.4
						C880.9,183.1,881.4,183.4,881.2,184"/>
				</g>
			</g>
		</g>
		<g>
			<g>
				<g>
					<defs>
						<rect id="SVGID_56_" x="794.5" y="124.5" width="129" height="147.8"/>
					</defs>
					<clipPath id="SVGID_57_">
						<use xlink:href="#SVGID_56_"  style="overflow:visible;"/>
					</clipPath>
					<path class="st28" d="M882.6,183.2c-0.4-0.1-2.5-0.8-5.7-1.2c-3.2-0.5-5.7-0.2-7.1-0.1c-1.4,0.1-1.4,0.1-2.9-0.3
						c-1.5-0.4-5.3-1.5-10.1-2.3s-8.1-0.5-8.1-0.5s-4.6-4.9-5.5-5.7c-0.2,2-0.7,3.1-0.7,3.1s5.6,4.9,5.8,5.1
						c0.3,0.2,0.4,0.2,0.9,0.6c0.5,0.4,0.5,1,0.6,2.2c0,1.2-0.1,2,0.9,2.5c0.9,0.4,3.2,1,5.9,1.4c2.6,0.4,5.9,0.2,6.8-0.2
						c0.9-0.4,1.8-1.8,2.2-2.5c0.5-0.7,0.9-1.5,1.2-1.8s1-0.2,1.7-0.1c0.7,0.1,0.5,0.4,0.5,0.8c0,0.3-0.3,3.2,0.6,4
						c0.9,0.8,2.2,1.1,5.7,1.4c3.5,0.2,4.2-0.4,4.6-1c0.5-0.7,1-1.9,1.2-2.3c0.2-0.4,0.3-0.6,0.7-0.7c0.4-0.1,0.6-0.3,0.7-0.6
						c0.1-0.3,0.2-0.7,0.4-1C882.9,183.6,883,183.3,882.6,183.2z M865.5,183.3c-0.2,0.5-1.1,2.6-2,3.3c-0.8,0.7-1.1,0.9-2.9,0.9
						c-1.8,0-5.4-0.3-7.4-0.9c-1.9-0.6-2.8-0.8-2.9-1.5c-0.1-0.8,0.2-3.9,0.4-4.5c0.1-0.6,0.8-0.9,1.2-0.9c0.8-0.1,4.6,0.1,6.3,0.4
						c1.7,0.3,5.9,1.3,6.8,1.8C865.9,182.4,865.7,182.9,865.5,183.3z M881.2,184c-0.1,0.6-1.6,4.1-2,4.4c-0.4,0.4-1.7,0.8-3.9,0.7
						s-4.3-0.5-4.9-0.8c-0.6-0.3-0.8-0.5-0.9-1.8c-0.1-1.3,0.1-2.2,0.3-2.9s1.2-1.1,3.5-1.1c0.8,0,3.7,0,5.5,0.4
						C880.9,183.1,881.4,183.4,881.2,184z"/>
				</g>
			</g>
		</g>
		<g>
			<g>
				<g>
					<defs>
						<rect id="SVGID_58_" x="794.5" y="124.5" width="129" height="147.8"/>
					</defs>
					<clipPath id="SVGID_59_">
						<use xlink:href="#SVGID_58_"  style="overflow:visible;"/>
					</clipPath>
					<path class="st29" d="M859.2,153.8c-0.2-0.1-0.9-0.6-0.9-0.6c-6.1-3.9-6.6-11-6.6-11s-3,3.2-2.8,8.2s4.5,8.7,4.5,8.7
						c-1.7,1.1-3.2,1.6-3.2,1.6s4,0.1,6.7-2.8C858.9,155.8,859.3,153.8,859.2,153.8"/>
				</g>
			</g>
		</g>
		<g>
			<g>
				<g>
					<defs>
						<rect id="SVGID_60_" x="794.5" y="124.5" width="129" height="147.8"/>
					</defs>
					<clipPath id="SVGID_61_">
						<use xlink:href="#SVGID_60_"  style="overflow:visible;"/>
					</clipPath>
					<path class="st30" d="M859.2,153.8c-0.2-0.1-0.9-0.6-0.9-0.6c-6.1-3.9-6.6-11-6.6-11s-3.5,9,5.8,15.1
						C857.5,157.2,858.8,156,859.2,153.8"/>
				</g>
			</g>
		</g>
		<g>
			<g>
				<g>
					<defs>
						<rect id="SVGID_62_" x="794.5" y="124.5" width="129" height="147.8"/>
					</defs>
					<clipPath id="SVGID_63_">
						<use xlink:href="#SVGID_62_"  style="overflow:visible;"/>
					</clipPath>
					<path class="st31" d="M831,182.4c0,0-7.6,1.1-12,5c3,0.6,11.2,5.3,11.2,5.3L831,182.4z"/>
				</g>
			</g>
		</g>
		<g>
			<g>
				<g>
					<defs>
						<rect id="SVGID_64_" x="794.5" y="124.5" width="129" height="147.8"/>
					</defs>
					<clipPath id="SVGID_65_">
						<use xlink:href="#SVGID_64_"  style="overflow:visible;"/>
					</clipPath>
					<path class="st32" d="M840.4,234.6c0.3,0.3,1.8,1.3,2.2,1.6c0.2-0.8,0.5-3.9,0.4-4.9c-0.4-2.4-0.8-3.7-2.9-5.7
						c-1.3-1.2-4-2.2-4.7-4.5c0.4,0.2,1.5,0.7,2.9,0.4c-0.8-0.8-3.7-5.7-3.4-8.5c0.3,0.8,1.2,1.6,1.4,1.6c-0.4-3.3,0.9-9.7,2.2-13.8
						l-7.8-0.8v-4.6L828,190c0,0,1.9,39.1,1.8,38.9C830.6,229.2,837.5,232.9,840.4,234.6 M836.2,234.5c0.1-0.2,0.1-0.4,0.2-0.6
						L836.2,234.5z"/>
				</g>
			</g>
		</g>
		<g>
			<g>
				<g>
					<defs>
						<rect id="SVGID_66_" x="794.5" y="124.5" width="129" height="147.8"/>
					</defs>
					<clipPath id="SVGID_67_">
						<use xlink:href="#SVGID_66_"  style="overflow:visible;"/>
					</clipPath>
					<path class="st33" d="M841.2,239.9c-0.4-1.6-0.5-4.1-0.5-5.3c0-0.3-0.3-3.9-0.6-4.8c-0.6-1.9-1.5-2.7-3.3-4.9
						c-2.5-2.9-4.2-7.4-3.4-16.1c0.3,0.8,1.2,1.5,1.4,1.6c0.4-3.6,2.1-6.1,4.1-10.1l-7.1-6.1v-4.4l-0.7-5.1c0,0-5.4,0.4-9.9,4.6
						c-4,3.7-5.1,7.3-5.1,7.3s1.8-1.1,3.3-1.2l0,0c-4.6,3.8-7,16.6-4.8,26.9c0.8-1,1.5-3.6,1.5-3.6c0.6,2.9,0.7,7.4,0.6,10.5
						c0.6-0.5,1.3-1.1,1.4-1.4c0.7,0.8,1.2,6,0.9,7.6c-0.2,0.9-0.1,1.8,0.1,2.8c0.6,4.3,4.3,9.1,6,9.4c-0.1-0.2-0.1-0.3-0.2-0.5
						c1,0.3,2.3,1.1,2.7,0.8c0,0-1-1.7-2-3.9c0.5,1.8,2.3,3.5,7.3,4.6c0-0.9-1-3.6-2-5.8c1.2,1.6,2.2,2.2,2.7,2.5
						c0-0.2-0.4-1.1,0-0.8c1.2,0.9,3.6,2.1,4,1.8c0.6-4.7-4.8-10.8-3.3-12.3s-0.3,3,3.4,4.2l-0.9,0.3
						C836.8,238.5,837.5,239.7,841.2,239.9 M834.1,234c0.1-0.2,0.1-0.4,0.2-0.6L834.1,234z"/>
				</g>
			</g>
		</g>
		<g>
			<g>
				<g>
					<defs>
						<rect id="SVGID_68_" x="794.5" y="124.5" width="129" height="147.8"/>
					</defs>
					<clipPath id="SVGID_69_">
						<use xlink:href="#SVGID_68_"  style="overflow:visible;"/>
					</clipPath>
					<path class="st34" d="M831.5,245c-0.4-1-1.5-4-1.5-4.1v-0.1c-0.1,0.5-0.2,0.9-0.2,0.9c0.1,0.1-1.3-2-1.4-4.6
						c-0.4,0.6-0.2,2.4,0.2,4.1c0.1-0.3,0.3-0.9,0.3-0.9C828.9,241.6,830.8,244.2,831.5,245 M830.1,241.3c0-0.1-0.1-0.3-0.2-0.4
						C830,240.9,830,241.1,830.1,241.3"/>
				</g>
			</g>
		</g>
		<g>
			<g>
				<g>
					<defs>
						<rect id="SVGID_70_" x="794.5" y="124.5" width="129" height="147.8"/>
					</defs>
					<clipPath id="SVGID_71_">
						<use xlink:href="#SVGID_70_"  style="overflow:visible;"/>
					</clipPath>
					<path class="st35" d="M825.4,244.1c0,0-0.4-1-0.4-1.5c-0.3,0.4-0.3,0.7-0.3,0.7s-1-3.5-0.8-4.1c-0.3,0.4-0.3,2.5,0.4,4.3
						c0.2,0.6,1.2,1.8,1.8,2.1C825.8,245.1,825.4,244.1,825.4,244.1"/>
				</g>
			</g>
		</g>
	</g>
</g>
<text transform="matrix(1 0 0 1 919.272 210.5662)" class="st36 st37 st38">+</text>
<text transform="matrix(1 0 0 1 946.333 213.71)" class="st36 st39 st38">DEVISE</text>
</svg>
